<svg id="Layer_1" data-name="Layer 1" xmlns="http://www.w3.org/2000/svg" viewBox="0 0 224.96 161.26"><defs><style>.cls-1{fill:none;}.cls-2{fill:#fff;}</style></defs><title>Vector Smart Object</title><path class="cls-1" d="M175.42,589.68h-8V603.1h8c5.23,0,8.24-2.23,8.24-6.83S180.66,589.68,175.42,589.68Z" transform="translate(-123.15 -479.65)"/><polygon class="cls-1" points="173.55 126.06 186.34 126.06 179.95 111 173.55 126.06"/><polygon class="cls-1" points="44.23 156.78 49.75 156.78 46.97 150.5 44.23 156.78"/><path class="cls-1" d="M281.64,632.77c0-1.87-1.26-2.85-3.48-2.85h-3.25v5.77h3.25C280.38,635.69,281.64,634.69,281.64,632.77Z" transform="translate(-123.15 -479.65)"/><path d="M140.78,618.7a19.25,19.25,0,0,0,13.13-5.57l-3.39-3.78a14,14,0,0,1-9.45,4,11.94,11.94,0,1,1,0-23.88,13.25,13.25,0,0,1,9.45,4.31l3.34-4.17A18.72,18.72,0,0,0,141,584.4c-10,0-17.83,7.41-17.83,17.05S130.85,618.7,140.78,618.7Z" transform="translate(-123.15 -479.65)"/><path d="M189.67,618.46l-7.61-11.34c4.51-1.74,7-5.57,7-11,0-7.36-5-11.58-13.66-11.58h-3.1L161.67,595.2v23.26h5.72V608.24h8c.53,0,1.07,0,1.55,0l6.2,10.27ZM175.42,603.1h-8V589.68h8c5.23,0,8.24,2.13,8.24,6.59S180.66,603.1,175.42,603.1Z" transform="translate(-123.15 -479.65)"/><polygon points="83.33 138.81 89 138.81 89 127.52 101.45 104.89 95.64 104.89 86.14 121.41 76.46 104.89 70.69 104.89 83.33 127.71 83.33 138.81"/><path d="M242.19,584.3c-7.36,0-12.35,3.63-12.35,9.45,0,12.06,18.31,7.85,18.31,15.41,0,2.62-2.37,4.12-6.35,4.12a17.88,17.88,0,0,1-11.48-4.94l-2.47,4.94a20.86,20.86,0,0,0,13.86,5.38c7.46,0,12.79-3.73,12.79-9.79,0-12.21-18.26-8.24-18.26-15.65,0-2.28,2.18-3.54,5.52-3.54a20.27,20.27,0,0,1,9.93,3.15l2.26-4.8-.77-.77A22.24,22.24,0,0,0,242.19,584.3Z" transform="translate(-123.15 -479.65)"/><polygon points="152.38 138.81 152.38 110.03 163.13 110.03 163.13 104.89 141.1 104.89 135.96 110.03 146.66 110.03 146.66 138.81 152.38 138.81"/><path d="M300.33,584.54l-15,33.91h6l3.25-7.65h17.1l3.25,7.65H321l-14.82-33.91Zm-3.63,21.17,6.4-15.07,6.4,15.07Z" transform="translate(-123.15 -479.65)"/><polygon points="204.32 138.81 224.72 138.81 224.72 133.62 210.04 133.62 210.04 104.89 209.9 104.89 204.32 110.48 204.32 138.81"/><path d="M130,639.6a4.87,4.87,0,1,1,0-9.73,5.19,5.19,0,0,1,3.62,1.52l.84-1a6.61,6.61,0,0,0-4.47-1.78,6.16,6.16,0,1,0-.05,12.32,6.72,6.72,0,0,0,4.54-1.85l-.86-.93A5.33,5.33,0,0,1,130,639.6Z" transform="translate(-123.15 -479.65)"/><polygon points="17.99 148.98 16.59 148.98 16.59 161.21 23.35 161.21 23.35 159.91 17.99 159.91 17.99 148.98"/><polygon points="29.81 155.65 35.98 155.65 35.98 154.37 29.81 154.37 29.81 150.27 36.72 150.27 36.72 148.98 28.42 148.98 28.42 161.21 36.94 161.21 36.94 159.91 29.81 159.91 29.81 155.65"/><path d="M169.44,628.63,164,640.86h1.49l1.36-3.13h6.66l1.38,3.13h1.52l-5.47-12.23Zm-2.06,7.81,2.74-6.29,2.78,6.29Z" transform="translate(-123.15 -479.65)"/><polygon points="66.72 158.92 59.38 148.98 57.93 148.98 57.93 161.21 59.33 161.21 59.33 151.28 66.66 161.21 68.09 161.21 68.09 148.98 66.72 148.98 66.72 158.92"/><rect x="74.61" y="148.98" width="1.4" height="12.23"/><polygon points="91.3 158.92 83.96 148.98 82.51 148.98 82.51 161.21 83.91 161.21 83.91 151.28 91.25 161.21 92.68 161.21 92.68 148.98 91.3 148.98 91.3 158.92"/><path d="M227.64,629.87a5.62,5.62,0,0,1,3.7,1.42l.8-1a6.92,6.92,0,0,0-4.51-1.68,6.16,6.16,0,1,0-.07,12.32,7.54,7.54,0,0,0,4.54-1.59v-4.44h-1.24v3.72a5.85,5.85,0,0,1-3.21,1,4.89,4.89,0,1,1,0-9.77Z" transform="translate(-123.15 -479.65)"/><path d="M246.82,631.62c0-1,1-1.68,2.6-1.68a6.45,6.45,0,0,1,3.37,1l.59-1.24a7.23,7.23,0,0,0-3.88-1.14c-2.53,0-4.23,1.22-4.23,3.14,0,4.39,6.88,2.66,6.87,5.92,0,1.19-1.1,1.9-2.87,1.9a6.15,6.15,0,0,1-4.07-1.71l-.63,1.21a7,7,0,0,0,4.68,1.87c2.62,0,4.42-1.31,4.42-3.34C253.7,633.14,246.82,634.79,246.82,631.62Z" transform="translate(-123.15 -479.65)"/><polygon points="137.6 155.65 143.77 155.65 143.77 154.37 137.6 154.37 137.6 150.27 144.5 150.27 144.5 148.98 136.2 148.98 136.2 161.21 144.73 161.21 144.73 159.91 137.6 159.91 137.6 155.65"/><path d="M283,632.73c0-2.6-1.76-4.11-4.82-4.11h-4.65v12.23h1.4V637h3.25c.28,0,.54,0,.79,0l2.57,3.91h1.59l-2.88-4.18A3.82,3.82,0,0,0,283,632.73Zm-4.82,3h-3.25v-5.77h3.25c2.22,0,3.48,1,3.48,2.85S280.38,635.69,278.17,635.69Z" transform="translate(-123.15 -479.65)"/><polygon points="169.61 159.63 165.4 148.98 163.9 148.98 168.86 161.21 170.31 161.21 175.3 148.98 173.84 148.98 169.61 159.63"/><rect x="180.06" y="148.98" width="1.4" height="12.23"/><path d="M316.34,639.6a4.87,4.87,0,1,1,0-9.73,5.19,5.19,0,0,1,3.62,1.52l.84-1a6.61,6.61,0,0,0-4.47-1.78,6.16,6.16,0,1,0-.05,12.32,6.72,6.72,0,0,0,4.54-1.85l-.86-.93A5.33,5.33,0,0,1,316.34,639.6Z" transform="translate(-123.15 -479.65)"/><polygon points="204.38 155.65 210.54 155.65 210.54 154.37 204.38 154.37 204.38 150.27 211.28 150.27 211.28 148.98 202.98 148.98 202.98 161.21 211.5 161.21 211.5 159.91 204.38 159.91 204.38 155.65"/><path d="M341.24,631.62c0-1,1-1.68,2.6-1.68a6.45,6.45,0,0,1,3.37,1l.59-1.24a7.23,7.23,0,0,0-3.88-1.14c-2.53,0-4.23,1.22-4.23,3.14,0,4.39,6.88,2.66,6.87,5.92,0,1.19-1.1,1.9-2.87,1.9a6.15,6.15,0,0,1-4.07-1.71L339,639a7,7,0,0,0,4.68,1.87c2.62,0,4.42-1.31,4.42-3.34C348.12,633.14,341.24,634.79,341.24,631.62Z" transform="translate(-123.15 -479.65)"/><path class="cls-2" d="M253.18,587.26l.77.77.11-.24C253.78,587.6,253.48,587.43,253.18,587.26Z" transform="translate(-123.15 -479.65)"/><path d="M277.07,479.65H194.18l-24.09,24.09,62.46,62.46.69.69,2.39,2.39,2.39-2.39.69-.69,62.46-62.46Zm-2.07,5,18.09,18.09H265.85l-7.4-18.09Zm-16.74,0,5.06,18.09H207.94L213,484.65Zm-62,0h16.55l-7.4,18.09H178.16Zm-18.09,20.09h27.27L227,553.55Zm57.46,54.52-27.45-54.52h54.89Zm8.66-5.71,21.54-48.81h27.27Z" transform="translate(-123.15 -479.65)"/></svg>